<?xml version="1.0" encoding="UTF-8" standalone="no"?>
<!DOCTYPE svg PUBLIC "-//W3C//DTD SVG 1.1//EN"
 "http://www.w3.org/Graphics/SVG/1.1/DTD/svg11.dtd">
<!-- Generated by graphviz version 2.40.1 (20161225.0304)
 -->
<!-- Title: %0 Pages: 1 -->
<svg width="185pt" height="310pt"
 viewBox="0.00 0.00 184.78 310.40" xmlns="http://www.w3.org/2000/svg" xmlns:xlink="http://www.w3.org/1999/xlink">
<g id="graph0" class="graph" transform="scale(1 1) rotate(0) translate(4 306.4)">
<title>%0</title>
<polygon fill="#ffffff" stroke="transparent" points="-4,4 -4,-306.4 180.777,-306.4 180.777,4 -4,4"/>
<!-- Start -->
<g id="node1" class="node">
<title>Start</title>
<ellipse fill="none" stroke="#000000" cx="74" cy="-284.4" rx="27.8228" ry="18"/>
<text text-anchor="middle" x="74" y="-280.2" font-family="Times,serif" font-size="14.00" fill="#000000">start</text>
</g>
<!-- op3 -->
<g id="node3" class="node">
<title>op3</title>
<ellipse fill="none" stroke="#000000" cx="27" cy="-195.6" rx="27" ry="18"/>
<text text-anchor="middle" x="27" y="-191.4" font-family="Times,serif" font-size="14.00" fill="#000000">*</text>
</g>
<!-- Start&#45;&#45;op3 -->
<g id="edge1" class="edge">
<title>Start&#45;&#45;op3</title>
<path fill="none" stroke="#000000" d="M47.8757,-277.9088C32.7008,-272.6504 14.822,-263.5527 5.6788,-248.4 -1.3694,-236.7193 5.3769,-222.2888 13.0937,-211.4674"/>
<text text-anchor="middle" x="17.6606" y="-235.8" font-family="Times,serif" font-size="14.00" fill="#000000">x[0]</text>
</g>
<!-- Start&#45;&#45;op3 -->
<g id="edge2" class="edge">
<title>Start&#45;&#45;op3</title>
<path fill="none" stroke="#000000" d="M63.1355,-267.7926C59.3511,-261.7751 55.1794,-254.8673 51.6788,-248.4 45.4172,-236.8318 39.151,-223.3969 34.4996,-212.9742"/>
<text text-anchor="middle" x="63.6606" y="-235.8" font-family="Times,serif" font-size="14.00" fill="#000000">y[0]</text>
</g>
<!-- op5 -->
<g id="node4" class="node">
<title>op5</title>
<ellipse fill="none" stroke="#000000" cx="121" cy="-195.6" rx="27" ry="18"/>
<text text-anchor="middle" x="121" y="-191.4" font-family="Times,serif" font-size="14.00" fill="#000000">*</text>
</g>
<!-- Start&#45;&#45;op5 -->
<g id="edge6" class="edge">
<title>Start&#45;&#45;op5</title>
<path fill="none" stroke="#000000" d="M81.0265,-266.9563C85.4294,-256.509 91.438,-243.0726 97.6788,-231.6 101.2373,-225.0584 105.5742,-218.1342 109.5385,-212.1246"/>
<text text-anchor="middle" x="109.6606" y="-235.8" font-family="Times,serif" font-size="14.00" fill="#000000">x[1]</text>
</g>
<!-- Start&#45;&#45;op5 -->
<g id="edge7" class="edge">
<title>Start&#45;&#45;op5</title>
<path fill="none" stroke="#000000" d="M96.0595,-273.4683C105.5771,-267.4849 115.7221,-259.091 121,-248.4 126.2752,-237.7145 126.1928,-224.2658 124.8337,-213.6157"/>
<text text-anchor="middle" x="136.6606" y="-235.8" font-family="Times,serif" font-size="14.00" fill="#000000">y[1]</text>
</g>
<!-- End -->
<g id="node2" class="node">
<title>End</title>
<ellipse fill="none" stroke="#000000" cx="74" cy="-18" rx="27" ry="18"/>
<text text-anchor="middle" x="74" y="-13.8" font-family="Times,serif" font-size="14.00" fill="#000000">end</text>
</g>
<!-- op6 -->
<g id="node5" class="node">
<title>op6</title>
<ellipse fill="none" stroke="#000000" cx="74" cy="-106.8" rx="27" ry="18"/>
<text text-anchor="middle" x="74" y="-102.6" font-family="Times,serif" font-size="14.00" fill="#000000">+</text>
</g>
<!-- op3&#45;&#45;op6 -->
<g id="edge4" class="edge">
<title>op3&#45;&#45;op6</title>
<path fill="none" stroke="#000000" d="M21.6985,-177.5415C19.5949,-166.8763 18.7939,-153.4266 24.223,-142.8 29.9971,-131.4981 41.1589,-122.9246 51.4518,-116.985"/>
<text text-anchor="middle" x="60.3885" y="-147" font-family="Times,serif" font-size="14.00" fill="#000000">temp_l83_i2</text>
</g>
<!-- op5&#45;&#45;op6 -->
<g id="edge3" class="edge">
<title>op5&#45;&#45;op6</title>
<path fill="none" stroke="#000000" d="M114.7631,-178.0482C110.7757,-167.5626 105.1993,-154.1238 99,-142.8 95.346,-136.1255 90.732,-129.1723 86.4655,-123.1766"/>
<text text-anchor="middle" x="141.3885" y="-147" font-family="Times,serif" font-size="14.00" fill="#000000">temp_l83_i3</text>
</g>
<!-- op6&#45;&#45;End -->
<g id="edge5" class="edge">
<title>op6&#45;&#45;End</title>
<path fill="none" stroke="#000000" d="M74,-88.4006C74,-73.0587 74,-51.322 74,-36.072"/>
<text text-anchor="middle" x="111.7034" y="-58.2" font-family="Times,serif" font-size="14.00" fill="#000000">sum_array[0]</text>
</g>
</g>
</svg>
