<?xml version="1.0" encoding="UTF-8" standalone="no"?>
<!DOCTYPE svg PUBLIC "-//W3C//DTD SVG 1.1//EN"
 "http://www.w3.org/Graphics/SVG/1.1/DTD/svg11.dtd">
<!-- Generated by graphviz version 2.40.1 (20161225.0304)
 -->
<!-- Title: %0 Pages: 1 -->
<svg width="983pt" height="666pt"
 viewBox="0.00 0.00 982.78 665.60" xmlns="http://www.w3.org/2000/svg" xmlns:xlink="http://www.w3.org/1999/xlink">
<g id="graph0" class="graph" transform="scale(1 1) rotate(0) translate(4 661.6)">
<title>%0</title>
<polygon fill="#ffffff" stroke="transparent" points="-4,4 -4,-661.6 978.777,-661.6 978.777,4 -4,4"/>
<!-- Start -->
<g id="node1" class="node">
<title>Start</title>
<ellipse fill="none" stroke="#000000" cx="466" cy="-639.6" rx="27.8228" ry="18"/>
<text text-anchor="middle" x="466" y="-635.4" font-family="Times,serif" font-size="14.00" fill="#000000">start</text>
</g>
<!-- op1 -->
<g id="node2" class="node">
<title>op1</title>
<ellipse fill="none" stroke="#000000" cx="27" cy="-550.8" rx="27" ry="18"/>
<text text-anchor="middle" x="27" y="-546.6" font-family="Times,serif" font-size="14.00" fill="#000000">*</text>
</g>
<!-- Start&#45;&#45;op1 -->
<g id="edge27" class="edge">
<title>Start&#45;&#45;op1</title>
<path fill="none" stroke="#000000" d="M438.027,-639.4344C345.812,-638.603 55.6789,-633.6047 27.6788,-603.6 19.1726,-594.4848 19.5126,-580.1529 21.7005,-568.7196"/>
<text text-anchor="middle" x="39.6606" y="-591" font-family="Times,serif" font-size="14.00" fill="#000000">y[0]</text>
</g>
<!-- Start&#45;&#45;op1 -->
<g id="edge29" class="edge">
<title>Start&#45;&#45;op1</title>
<path fill="none" stroke="#000000" d="M438.378,-638.2429C354.4286,-633.9557 106.0503,-620.0102 73.6788,-603.6 57.9639,-595.6336 45.1588,-579.9231 36.9623,-567.7013"/>
<text text-anchor="middle" x="85.6606" y="-591" font-family="Times,serif" font-size="14.00" fill="#000000">x[0]</text>
</g>
<!-- op2 -->
<g id="node3" class="node">
<title>op2</title>
<ellipse fill="none" stroke="#000000" cx="111" cy="-462" rx="27" ry="18"/>
<text text-anchor="middle" x="111" y="-457.8" font-family="Times,serif" font-size="14.00" fill="#000000">+</text>
</g>
<!-- Start&#45;&#45;op2 -->
<g id="edge1" class="edge">
<title>Start&#45;&#45;op2</title>
<path fill="none" stroke="#000000" d="M438.3809,-638.1402C363.4576,-633.965 160.3456,-621.1374 136,-603.6 97.5147,-575.8771 102.385,-511.3061 107.4542,-479.8544"/>
<text text-anchor="middle" x="114.5" y="-546.6" font-family="Times,serif" font-size="14.00" fill="#000000">0</text>
</g>
<!-- op3 -->
<g id="node4" class="node">
<title>op3</title>
<ellipse fill="none" stroke="#000000" cx="163" cy="-550.8" rx="27" ry="18"/>
<text text-anchor="middle" x="163" y="-546.6" font-family="Times,serif" font-size="14.00" fill="#000000">*</text>
</g>
<!-- Start&#45;&#45;op3 -->
<g id="edge26" class="edge">
<title>Start&#45;&#45;op3</title>
<path fill="none" stroke="#000000" d="M438.1305,-638.5616C363.6171,-635.5008 164.1127,-625.3328 144.6788,-603.6 135.4946,-593.3294 142.1362,-578.2073 149.8726,-566.7759"/>
<text text-anchor="middle" x="155.6606" y="-591" font-family="Times,serif" font-size="14.00" fill="#000000">x[1]</text>
</g>
<!-- Start&#45;&#45;op3 -->
<g id="edge30" class="edge">
<title>Start&#45;&#45;op3</title>
<path fill="none" stroke="#000000" d="M438.217,-638.4304C379.1255,-635.5232 243.15,-626.4818 203.6788,-603.6 189.463,-595.359 178.5019,-580.0149 171.5587,-567.9834"/>
<text text-anchor="middle" x="214.6606" y="-591" font-family="Times,serif" font-size="14.00" fill="#000000">y[1]</text>
</g>
<!-- op5 -->
<g id="node6" class="node">
<title>op5</title>
<ellipse fill="none" stroke="#000000" cx="247" cy="-550.8" rx="27" ry="18"/>
<text text-anchor="middle" x="247" y="-546.6" font-family="Times,serif" font-size="14.00" fill="#000000">*</text>
</g>
<!-- Start&#45;&#45;op5 -->
<g id="edge21" class="edge">
<title>Start&#45;&#45;op5</title>
<path fill="none" stroke="#000000" d="M438.4571,-637.2676C380.393,-632.0718 249.6775,-618.7985 236.6788,-603.6 228.3011,-593.8045 231.9548,-579.2267 237.1031,-567.869"/>
<text text-anchor="middle" x="247.6606" y="-591" font-family="Times,serif" font-size="14.00" fill="#000000">y[2]</text>
</g>
<!-- Start&#45;&#45;op5 -->
<g id="edge23" class="edge">
<title>Start&#45;&#45;op5</title>
<path fill="none" stroke="#000000" d="M438.7328,-635.8277C397.2857,-629.7574 320.7076,-617.1251 296.6788,-603.6 280.9943,-594.7717 267.3312,-579.3312 258.3252,-567.4203"/>
<text text-anchor="middle" x="307.6606" y="-591" font-family="Times,serif" font-size="14.00" fill="#000000">x[2]</text>
</g>
<!-- op7 -->
<g id="node8" class="node">
<title>op7</title>
<ellipse fill="none" stroke="#000000" cx="341" cy="-550.8" rx="27" ry="18"/>
<text text-anchor="middle" x="341" y="-546.6" font-family="Times,serif" font-size="14.00" fill="#000000">*</text>
</g>
<!-- Start&#45;&#45;op7 -->
<g id="edge20" class="edge">
<title>Start&#45;&#45;op7</title>
<path fill="none" stroke="#000000" d="M438.6465,-636.3645C402.5482,-631.4674 342.0038,-620.8685 328.6788,-603.6 320.7432,-593.3159 324.9436,-578.7763 330.5018,-567.5575"/>
<text text-anchor="middle" x="339.6606" y="-591" font-family="Times,serif" font-size="14.00" fill="#000000">x[3]</text>
</g>
<!-- Start&#45;&#45;op7 -->
<g id="edge24" class="edge">
<title>Start&#45;&#45;op7</title>
<path fill="none" stroke="#000000" d="M441.671,-630.6696C426.2638,-624.3818 406.3619,-615.0552 390.6788,-603.6 376.4495,-593.2067 362.926,-578.39 353.5918,-567.0964"/>
<text text-anchor="middle" x="401.6606" y="-591" font-family="Times,serif" font-size="14.00" fill="#000000">y[3]</text>
</g>
<!-- op9 -->
<g id="node10" class="node">
<title>op9</title>
<ellipse fill="none" stroke="#000000" cx="435" cy="-550.8" rx="27" ry="18"/>
<text text-anchor="middle" x="435" y="-546.6" font-family="Times,serif" font-size="14.00" fill="#000000">*</text>
</g>
<!-- Start&#45;&#45;op9 -->
<g id="edge15" class="edge">
<title>Start&#45;&#45;op9</title>
<path fill="none" stroke="#000000" d="M444.2334,-628.1807C435.191,-622.1833 425.659,-613.9161 420.6788,-603.6 415.1457,-592.1386 419.3289,-578.2093 424.5726,-567.536"/>
<text text-anchor="middle" x="431.6606" y="-591" font-family="Times,serif" font-size="14.00" fill="#000000">y[4]</text>
</g>
<!-- Start&#45;&#45;op9 -->
<g id="edge17" class="edge">
<title>Start&#45;&#45;op9</title>
<path fill="none" stroke="#000000" d="M459.7267,-621.63C454.3129,-606.1222 446.5381,-583.8511 441.1582,-568.4402"/>
<text text-anchor="middle" x="464.6606" y="-591" font-family="Times,serif" font-size="14.00" fill="#000000">x[4]</text>
</g>
<!-- op11 -->
<g id="node12" class="node">
<title>op11</title>
<ellipse fill="none" stroke="#000000" cx="529" cy="-550.8" rx="27" ry="18"/>
<text text-anchor="middle" x="529" y="-546.6" font-family="Times,serif" font-size="14.00" fill="#000000">*</text>
</g>
<!-- Start&#45;&#45;op11 -->
<g id="edge14" class="edge">
<title>Start&#45;&#45;op11</title>
<path fill="none" stroke="#000000" d="M477.8498,-622.8974C489.1845,-606.9209 506.171,-582.9781 517.4162,-567.1277"/>
<text text-anchor="middle" x="514.6606" y="-591" font-family="Times,serif" font-size="14.00" fill="#000000">x[5]</text>
</g>
<!-- Start&#45;&#45;op11 -->
<g id="edge18" class="edge">
<title>Start&#45;&#45;op11</title>
<path fill="none" stroke="#000000" d="M491.4952,-632.292C505.5115,-626.826 521.6977,-617.7958 530,-603.6 536.1097,-593.1533 535.6529,-579.4419 533.7769,-568.6099"/>
<text text-anchor="middle" x="545.6606" y="-591" font-family="Times,serif" font-size="14.00" fill="#000000">y[5]</text>
</g>
<!-- op13 -->
<g id="node14" class="node">
<title>op13</title>
<ellipse fill="none" stroke="#000000" cx="623" cy="-550.8" rx="27" ry="18"/>
<text text-anchor="middle" x="623" y="-546.6" font-family="Times,serif" font-size="14.00" fill="#000000">*</text>
</g>
<!-- Start&#45;&#45;op13 -->
<g id="edge9" class="edge">
<title>Start&#45;&#45;op13</title>
<path fill="none" stroke="#000000" d="M491.6754,-632.5044C511.4303,-626.4342 538.9838,-616.6131 561,-603.6 578.5264,-593.2407 595.9528,-577.8293 607.8462,-566.3273"/>
<text text-anchor="middle" x="595.6606" y="-591" font-family="Times,serif" font-size="14.00" fill="#000000">y[6]</text>
</g>
<!-- Start&#45;&#45;op13 -->
<g id="edge11" class="edge">
<title>Start&#45;&#45;op13</title>
<path fill="none" stroke="#000000" d="M493.3652,-636.2448C530.6919,-631.1115 594.7943,-620.1311 611,-603.6 619.884,-594.5377 622.7352,-580.35 623.4458,-568.9628"/>
<text text-anchor="middle" x="631.6606" y="-591" font-family="Times,serif" font-size="14.00" fill="#000000">x[6]</text>
</g>
<!-- op15 -->
<g id="node16" class="node">
<title>op15</title>
<ellipse fill="none" stroke="#000000" cx="717" cy="-550.8" rx="27" ry="18"/>
<text text-anchor="middle" x="717" y="-546.6" font-family="Times,serif" font-size="14.00" fill="#000000">*</text>
</g>
<!-- Start&#45;&#45;op15 -->
<g id="edge8" class="edge">
<title>Start&#45;&#45;op15</title>
<path fill="none" stroke="#000000" d="M493.841,-637.9287C530.4159,-634.884 595.9801,-626.4628 647,-603.6 667.837,-594.2626 688.2882,-577.7401 701.6519,-565.6582"/>
<text text-anchor="middle" x="684.6606" y="-591" font-family="Times,serif" font-size="14.00" fill="#000000">x[7]</text>
</g>
<!-- Start&#45;&#45;op15 -->
<g id="edge12" class="edge">
<title>Start&#45;&#45;op15</title>
<path fill="none" stroke="#000000" d="M493.9073,-638.886C549.0811,-636.9156 669.4254,-629.6667 700,-603.6 710.0397,-595.0405 714.2025,-580.5209 715.9032,-568.8716"/>
<text text-anchor="middle" x="721.6606" y="-591" font-family="Times,serif" font-size="14.00" fill="#000000">y[7]</text>
</g>
<!-- op17 -->
<g id="node18" class="node">
<title>op17</title>
<ellipse fill="none" stroke="#000000" cx="811" cy="-550.8" rx="27" ry="18"/>
<text text-anchor="middle" x="811" y="-546.6" font-family="Times,serif" font-size="14.00" fill="#000000">*</text>
</g>
<!-- Start&#45;&#45;op17 -->
<g id="edge3" class="edge">
<title>Start&#45;&#45;op17</title>
<path fill="none" stroke="#000000" d="M493.7892,-637.619C553.6833,-633.0738 693.0728,-620.9368 737,-603.6 759.314,-594.7933 781.218,-577.8305 795.3323,-565.5017"/>
<text text-anchor="middle" x="778.6606" y="-591" font-family="Times,serif" font-size="14.00" fill="#000000">y[8]</text>
</g>
<!-- Start&#45;&#45;op17 -->
<g id="edge5" class="edge">
<title>Start&#45;&#45;op17</title>
<path fill="none" stroke="#000000" d="M493.8351,-638.2638C568.813,-634.4272 770.9179,-622.4308 794,-603.6 804.2228,-595.26 808.3727,-580.7249 810.0218,-569.0139"/>
<text text-anchor="middle" x="816.6606" y="-591" font-family="Times,serif" font-size="14.00" fill="#000000">x[8]</text>
</g>
<!-- op19 -->
<g id="node20" class="node">
<title>op19</title>
<ellipse fill="none" stroke="#000000" cx="897" cy="-550.8" rx="27" ry="18"/>
<text text-anchor="middle" x="897" y="-546.6" font-family="Times,serif" font-size="14.00" fill="#000000">*</text>
</g>
<!-- Start&#45;&#45;op19 -->
<g id="edge2" class="edge">
<title>Start&#45;&#45;op19</title>
<path fill="none" stroke="#000000" d="M493.8355,-638.9258C568.3292,-636.797 770.7347,-628.7922 832,-603.6 851.9005,-595.417 870.5159,-579.0483 882.6808,-566.6936"/>
<text text-anchor="middle" x="870.6606" y="-591" font-family="Times,serif" font-size="14.00" fill="#000000">x[9]</text>
</g>
<!-- Start&#45;&#45;op19 -->
<g id="edge36" class="edge">
<title>Start&#45;&#45;op19</title>
<path fill="none" stroke="#000000" d="M493.8398,-639.1086C582.8953,-637.2803 856.7054,-629.5773 886,-603.6 895.5979,-595.089 898.0733,-580.5659 898.3008,-568.903"/>
<text text-anchor="middle" x="906.6606" y="-591" font-family="Times,serif" font-size="14.00" fill="#000000">y[9]</text>
</g>
<!-- op1&#45;&#45;op2 -->
<g id="edge4" class="edge">
<title>op1&#45;&#45;op2</title>
<path fill="none" stroke="#000000" d="M21.929,-532.7401C19.9598,-521.8141 19.5446,-508.0916 26.223,-498 39.0188,-478.6647 64.5172,-469.6833 84.2234,-465.5298"/>
<text text-anchor="middle" x="62.3885" y="-502.2" font-family="Times,serif" font-size="14.00" fill="#000000">temp_l83_i1</text>
</g>
<!-- op4 -->
<g id="node5" class="node">
<title>op4</title>
<ellipse fill="none" stroke="#000000" cx="324" cy="-284.4" rx="27" ry="18"/>
<text text-anchor="middle" x="324" y="-280.2" font-family="Times,serif" font-size="14.00" fill="#000000">+</text>
</g>
<!-- op2&#45;&#45;op4 -->
<g id="edge7" class="edge">
<title>op2&#45;&#45;op4</title>
<path fill="none" stroke="#000000" d="M128.0706,-447.7665C167.9531,-414.5124 266.8855,-332.0222 306.8481,-298.7013"/>
<text text-anchor="middle" x="249.6676" y="-369" font-family="Times,serif" font-size="14.00" fill="#000000">sum</text>
</g>
<!-- op6 -->
<g id="node7" class="node">
<title>op6</title>
<ellipse fill="none" stroke="#000000" cx="247" cy="-462" rx="27" ry="18"/>
<text text-anchor="middle" x="247" y="-457.8" font-family="Times,serif" font-size="14.00" fill="#000000">+</text>
</g>
<!-- op3&#45;&#45;op6 -->
<g id="edge19" class="edge">
<title>op3&#45;&#45;op6</title>
<path fill="none" stroke="#000000" d="M162.1802,-532.5327C162.593,-521.5286 164.8136,-507.7968 172.223,-498 184.13,-482.2563 204.7083,-473.0532 221.2669,-467.899"/>
<text text-anchor="middle" x="207.3885" y="-502.2" font-family="Times,serif" font-size="14.00" fill="#000000">temp_l83_i2</text>
</g>
<!-- op12 -->
<g id="node13" class="node">
<title>op12</title>
<ellipse fill="none" stroke="#000000" cx="682" cy="-195.6" rx="27" ry="18"/>
<text text-anchor="middle" x="682" y="-191.4" font-family="Times,serif" font-size="14.00" fill="#000000">+</text>
</g>
<!-- op4&#45;&#45;op12 -->
<g id="edge37" class="edge">
<title>op4&#45;&#45;op12</title>
<path fill="none" stroke="#000000" d="M349.4595,-278.0849C415.2735,-261.7601 590.4954,-218.2972 656.4308,-201.9423"/>
<text text-anchor="middle" x="546.6676" y="-235.8" font-family="Times,serif" font-size="14.00" fill="#000000">sum</text>
</g>
<!-- op5&#45;&#45;op6 -->
<g id="edge16" class="edge">
<title>op5&#45;&#45;op6</title>
<path fill="none" stroke="#000000" d="M247,-532.4006C247,-517.0587 247,-495.322 247,-480.072"/>
<text text-anchor="middle" x="282.3885" y="-502.2" font-family="Times,serif" font-size="14.00" fill="#000000">temp_l83_i3</text>
</g>
<!-- op8 -->
<g id="node9" class="node">
<title>op8</title>
<ellipse fill="none" stroke="#000000" cx="324" cy="-373.2" rx="27" ry="18"/>
<text text-anchor="middle" x="324" y="-369" font-family="Times,serif" font-size="14.00" fill="#000000">+</text>
</g>
<!-- op6&#45;&#45;op8 -->
<g id="edge34" class="edge">
<title>op6&#45;&#45;op8</title>
<path fill="none" stroke="#000000" d="M260.7661,-446.1243C274.7815,-429.961 296.3808,-405.0517 310.3531,-388.9382"/>
<text text-anchor="middle" x="303.6676" y="-413.4" font-family="Times,serif" font-size="14.00" fill="#000000">sum</text>
</g>
<!-- op10 -->
<g id="node11" class="node">
<title>op10</title>
<ellipse fill="none" stroke="#000000" cx="341" cy="-462" rx="27" ry="18"/>
<text text-anchor="middle" x="341" y="-457.8" font-family="Times,serif" font-size="14.00" fill="#000000">+</text>
</g>
<!-- op7&#45;&#45;op10 -->
<g id="edge31" class="edge">
<title>op7&#45;&#45;op10</title>
<path fill="none" stroke="#000000" d="M341,-532.4006C341,-517.0587 341,-495.322 341,-480.072"/>
<text text-anchor="middle" x="376.3885" y="-502.2" font-family="Times,serif" font-size="14.00" fill="#000000">temp_l83_i4</text>
</g>
<!-- op8&#45;&#45;op4 -->
<g id="edge22" class="edge">
<title>op8&#45;&#45;op4</title>
<path fill="none" stroke="#000000" d="M324,-354.8006C324,-339.4587 324,-317.722 324,-302.472"/>
<text text-anchor="middle" x="335.6676" y="-324.6" font-family="Times,serif" font-size="14.00" fill="#000000">sum</text>
</g>
<!-- op9&#45;&#45;op10 -->
<g id="edge28" class="edge">
<title>op9&#45;&#45;op10</title>
<path fill="none" stroke="#000000" d="M430.9594,-532.8827C427.6821,-521.7383 422.08,-507.7277 413,-498 400.2216,-484.31 381.0936,-475.0882 365.7642,-469.4078"/>
<text text-anchor="middle" x="459.3885" y="-502.2" font-family="Times,serif" font-size="14.00" fill="#000000">temp_l83_i5</text>
</g>
<!-- op10&#45;&#45;op8 -->
<g id="edge25" class="edge">
<title>op10&#45;&#45;op8</title>
<path fill="none" stroke="#000000" d="M337.5598,-444.03C334.6104,-428.6236 330.383,-406.542 327.4351,-391.1433"/>
<text text-anchor="middle" x="345.6676" y="-413.4" font-family="Times,serif" font-size="14.00" fill="#000000">sum</text>
</g>
<!-- op14 -->
<g id="node15" class="node">
<title>op14</title>
<ellipse fill="none" stroke="#000000" cx="623" cy="-462" rx="27" ry="18"/>
<text text-anchor="middle" x="623" y="-457.8" font-family="Times,serif" font-size="14.00" fill="#000000">+</text>
</g>
<!-- op11&#45;&#45;op14 -->
<g id="edge32" class="edge">
<title>op11&#45;&#45;op14</title>
<path fill="none" stroke="#000000" d="M531.9594,-532.8582C534.5952,-521.7039 539.4509,-507.6917 548.223,-498 561.3725,-483.472 581.6547,-474.2198 597.78,-468.7381"/>
<text text-anchor="middle" x="583.3885" y="-502.2" font-family="Times,serif" font-size="14.00" fill="#000000">temp_l83_i6</text>
</g>
<!-- op20 -->
<g id="node21" class="node">
<title>op20</title>
<ellipse fill="none" stroke="#000000" cx="760" cy="-106.8" rx="27" ry="18"/>
<text text-anchor="middle" x="760" y="-102.6" font-family="Times,serif" font-size="14.00" fill="#000000">+</text>
</g>
<!-- op12&#45;&#45;op20 -->
<g id="edge41" class="edge">
<title>op12&#45;&#45;op20</title>
<path fill="none" stroke="#000000" d="M695.9448,-179.7243C710.1423,-163.561 732.0221,-138.6517 746.1759,-122.5382"/>
<text text-anchor="middle" x="738.6676" y="-147" font-family="Times,serif" font-size="14.00" fill="#000000">sum</text>
</g>
<!-- op13&#45;&#45;op14 -->
<g id="edge40" class="edge">
<title>op13&#45;&#45;op14</title>
<path fill="none" stroke="#000000" d="M623,-532.4006C623,-517.0587 623,-495.322 623,-480.072"/>
<text text-anchor="middle" x="658.3885" y="-502.2" font-family="Times,serif" font-size="14.00" fill="#000000">temp_l83_i7</text>
</g>
<!-- op16 -->
<g id="node17" class="node">
<title>op16</title>
<ellipse fill="none" stroke="#000000" cx="682" cy="-373.2" rx="27" ry="18"/>
<text text-anchor="middle" x="682" y="-369" font-family="Times,serif" font-size="14.00" fill="#000000">+</text>
</g>
<!-- op14&#45;&#45;op16 -->
<g id="edge13" class="edge">
<title>op14&#45;&#45;op16</title>
<path fill="none" stroke="#000000" d="M634.0974,-445.2974C644.6457,-429.4214 660.4205,-405.6789 670.9523,-389.8277"/>
<text text-anchor="middle" x="668.6676" y="-413.4" font-family="Times,serif" font-size="14.00" fill="#000000">sum</text>
</g>
<!-- op18 -->
<g id="node19" class="node">
<title>op18</title>
<ellipse fill="none" stroke="#000000" cx="717" cy="-462" rx="27" ry="18"/>
<text text-anchor="middle" x="717" y="-457.8" font-family="Times,serif" font-size="14.00" fill="#000000">+</text>
</g>
<!-- op15&#45;&#45;op18 -->
<g id="edge39" class="edge">
<title>op15&#45;&#45;op18</title>
<path fill="none" stroke="#000000" d="M717,-532.4006C717,-517.0587 717,-495.322 717,-480.072"/>
<text text-anchor="middle" x="752.3885" y="-502.2" font-family="Times,serif" font-size="14.00" fill="#000000">temp_l83_i8</text>
</g>
<!-- op16&#45;&#45;op12 -->
<g id="edge10" class="edge">
<title>op16&#45;&#45;op12</title>
<path fill="none" stroke="#000000" d="M682,-355.1934C682,-321.1537 682,-247.7307 682,-213.6543"/>
<text text-anchor="middle" x="693.6676" y="-280.2" font-family="Times,serif" font-size="14.00" fill="#000000">sum</text>
</g>
<!-- op17&#45;&#45;op18 -->
<g id="edge35" class="edge">
<title>op17&#45;&#45;op18</title>
<path fill="none" stroke="#000000" d="M806.9594,-532.8827C803.6821,-521.7383 798.08,-507.7277 789,-498 776.2216,-484.31 757.0936,-475.0882 741.7642,-469.4078"/>
<text text-anchor="middle" x="835.3885" y="-502.2" font-family="Times,serif" font-size="14.00" fill="#000000">temp_l83_i9</text>
</g>
<!-- op18&#45;&#45;op16 -->
<g id="edge6" class="edge">
<title>op18&#45;&#45;op16</title>
<path fill="none" stroke="#000000" d="M710.0851,-444.456C703.9491,-428.8881 695.0321,-406.2644 688.9005,-390.7076"/>
<text text-anchor="middle" x="713.6676" y="-413.4" font-family="Times,serif" font-size="14.00" fill="#000000">sum</text>
</g>
<!-- op19&#45;&#45;op20 -->
<g id="edge38" class="edge">
<title>op19&#45;&#45;op20</title>
<path fill="none" stroke="#000000" d="M897,-532.7721C897,-514.8311 897,-486.5125 897,-462 897,-462 897,-462 897,-195.6 897,-143.3052 825.8404,-120.2646 786.0911,-111.4736"/>
<text text-anchor="middle" x="935.8885" y="-324.6" font-family="Times,serif" font-size="14.00" fill="#000000">temp_l83_i10</text>
</g>
<!-- End -->
<g id="node22" class="node">
<title>End</title>
<ellipse fill="none" stroke="#000000" cx="760" cy="-18" rx="27" ry="18"/>
<text text-anchor="middle" x="760" y="-13.8" font-family="Times,serif" font-size="14.00" fill="#000000">end</text>
</g>
<!-- op20&#45;&#45;End -->
<g id="edge33" class="edge">
<title>op20&#45;&#45;End</title>
<path fill="none" stroke="#000000" d="M760,-88.4006C760,-73.0587 760,-51.322 760,-36.072"/>
<text text-anchor="middle" x="772.4453" y="-58.2" font-family="Times,serif" font-size="14.00" fill="#000000">*out</text>
</g>
</g>
</svg>
