<?xml version="1.0" encoding="UTF-8" standalone="no"?>
<!DOCTYPE svg PUBLIC "-//W3C//DTD SVG 1.1//EN"
 "http://www.w3.org/Graphics/SVG/1.1/DTD/svg11.dtd">
<!-- Generated by graphviz version 2.40.1 (20161225.0304)
 -->
<!-- Title: %0 Pages: 1 -->
<svg width="649pt" height="577pt"
 viewBox="0.00 0.00 649.02 576.80" xmlns="http://www.w3.org/2000/svg" xmlns:xlink="http://www.w3.org/1999/xlink">
<g id="graph0" class="graph" transform="scale(1 1) rotate(0) translate(4 572.8)">
<title>%0</title>
<polygon fill="#ffffff" stroke="transparent" points="-4,4 -4,-572.8 645.0249,-572.8 645.0249,4 -4,4"/>
<!-- Start -->
<g id="node1" class="node">
<title>Start</title>
<ellipse fill="none" stroke="#000000" cx="413.2479" cy="-550.8" rx="27.8228" ry="18"/>
<text text-anchor="middle" x="413.2479" y="-546.6" font-family="Times,serif" font-size="14.00" fill="#000000">start</text>
</g>
<!-- op1 -->
<g id="node2" class="node">
<title>op1</title>
<ellipse fill="none" stroke="#000000" cx="426.2479" cy="-462" rx="27" ry="18"/>
<text text-anchor="middle" x="426.2479" y="-457.8" font-family="Times,serif" font-size="14.00" fill="#000000">*</text>
</g>
<!-- Start&#45;&#45;op1 -->
<g id="edge8" class="edge">
<title>Start&#45;&#45;op1</title>
<path fill="none" stroke="#000000" d="M432.7762,-537.6558C440.0006,-531.632 447.3698,-523.816 451.2479,-514.8 456.6981,-502.1289 449.3018,-488.0193 441.1702,-477.5757"/>
<text text-anchor="middle" x="471.9085" y="-502.2" font-family="Times,serif" font-size="14.00" fill="#000000">x_0[0]</text>
</g>
<!-- Start&#45;&#45;op1 -->
<g id="edge9" class="edge">
<title>Start&#45;&#45;op1</title>
<path fill="none" stroke="#000000" d="M409.6573,-532.5323C408.2486,-522.2792 407.4822,-509.3117 409.9267,-498 411.3181,-491.5608 413.9612,-484.8885 416.7214,-479.0634"/>
<text text-anchor="middle" x="428.9085" y="-502.2" font-family="Times,serif" font-size="14.00" fill="#000000">y_0[0]</text>
</g>
<!-- op8 -->
<g id="node3" class="node">
<title>op8</title>
<ellipse fill="none" stroke="#000000" cx="301.2479" cy="-462" rx="27" ry="18"/>
<text text-anchor="middle" x="301.2479" y="-457.8" font-family="Times,serif" font-size="14.00" fill="#000000">+</text>
</g>
<!-- Start&#45;&#45;op8 -->
<g id="edge10" class="edge">
<title>Start&#45;&#45;op8</title>
<path fill="none" stroke="#000000" d="M385.9491,-547.5561C364.0336,-543.5295 334.0182,-534.5791 315.8411,-514.8 307.2178,-505.4168 303.6236,-491.3901 302.1564,-480.152"/>
<text text-anchor="middle" x="360.9513" y="-502.2" font-family="Times,serif" font-size="14.00" fill="#000000">sum_array_0[1]</text>
</g>
<!-- Start&#45;&#45;op8 -->
<g id="edge11" class="edge">
<title>Start&#45;&#45;op8</title>
<path fill="none" stroke="#000000" d="M385.3761,-550.0019C335.7815,-547.931 235.3835,-540.5799 213.8411,-514.8 193.8334,-490.8568 242.6496,-474.8793 275.1137,-467.2315"/>
<text text-anchor="middle" x="258.9513" y="-502.2" font-family="Times,serif" font-size="14.00" fill="#000000">sum_array_0[0]</text>
</g>
<!-- op16 -->
<g id="node4" class="node">
<title>op16</title>
<ellipse fill="none" stroke="#000000" cx="77.2479" cy="-462" rx="27" ry="18"/>
<text text-anchor="middle" x="77.2479" y="-457.8" font-family="Times,serif" font-size="14.00" fill="#000000">+</text>
</g>
<!-- Start&#45;&#45;op16 -->
<g id="edge4" class="edge">
<title>Start&#45;&#45;op16</title>
<path fill="none" stroke="#000000" d="M385.1813,-550.2153C320.1328,-548.4182 161.1635,-541.3573 115.8411,-514.8 101.9302,-506.6487 91.5774,-491.2949 85.1155,-479.2367"/>
<text text-anchor="middle" x="160.9513" y="-502.2" font-family="Times,serif" font-size="14.00" fill="#000000">sum_array_1[1]</text>
</g>
<!-- Start&#45;&#45;op16 -->
<g id="edge5" class="edge">
<title>Start&#45;&#45;op16</title>
<path fill="none" stroke="#000000" d="M385.3382,-550.4695C297.4194,-549.1422 30.4987,-542.8188 4.8411,-514.8 -13.0209,-495.2943 24.7699,-478.4109 52.1764,-469.2687"/>
<text text-anchor="middle" x="49.9513" y="-502.2" font-family="Times,serif" font-size="14.00" fill="#000000">sum_array_1[0]</text>
</g>
<!-- op19 -->
<g id="node5" class="node">
<title>op19</title>
<ellipse fill="none" stroke="#000000" cx="577.2479" cy="-462" rx="27" ry="18"/>
<text text-anchor="middle" x="577.2479" y="-457.8" font-family="Times,serif" font-size="14.00" fill="#000000">*</text>
</g>
<!-- Start&#45;&#45;op19 -->
<g id="edge12" class="edge">
<title>Start&#45;&#45;op19</title>
<path fill="none" stroke="#000000" d="M441.0316,-549.5052C487.2837,-546.7035 576.914,-538.3077 596.2479,-514.8 605.0352,-504.1156 598.2282,-489.0388 590.4231,-477.7298"/>
<text text-anchor="middle" x="618.9085" y="-502.2" font-family="Times,serif" font-size="14.00" fill="#000000">x_3[0]</text>
</g>
<!-- Start&#45;&#45;op19 -->
<g id="edge13" class="edge">
<title>Start&#45;&#45;op19</title>
<path fill="none" stroke="#000000" d="M440.7461,-547.7089C467.1444,-543.6582 507.1863,-534.5814 536.2479,-514.8 549.6797,-505.6574 560.6824,-490.7235 567.8958,-479.0668"/>
<text text-anchor="middle" x="571.9085" y="-502.2" font-family="Times,serif" font-size="14.00" fill="#000000">y_3[0]</text>
</g>
<!-- op2 -->
<g id="node6" class="node">
<title>op2</title>
<ellipse fill="none" stroke="#000000" cx="426.2479" cy="-373.2" rx="27" ry="18"/>
<text text-anchor="middle" x="426.2479" y="-369" font-family="Times,serif" font-size="14.00" fill="#000000">+</text>
</g>
<!-- Start&#45;&#45;op2 -->
<g id="edge15" class="edge">
<title>Start&#45;&#45;op2</title>
<path fill="none" stroke="#000000" d="M440.0136,-546.2572C458.4183,-541.6366 481.7179,-532.5148 494.2479,-514.8 517.1091,-482.4788 499.6911,-465.5585 501.2479,-426 501.5415,-418.5391 505.2244,-415.5197 501.2479,-409.2 490.5559,-392.208 469.3636,-383.0549 452.2259,-378.2377"/>
<text text-anchor="middle" x="508.7479" y="-457.8" font-family="Times,serif" font-size="14.00" fill="#000000">0</text>
</g>
<!-- op1&#45;&#45;op2 -->
<g id="edge14" class="edge">
<title>op1&#45;&#45;op2</title>
<path fill="none" stroke="#000000" d="M426.2479,-443.6006C426.2479,-428.2587 426.2479,-406.522 426.2479,-391.272"/>
<text text-anchor="middle" x="461.6364" y="-413.4" font-family="Times,serif" font-size="14.00" fill="#000000">temp_l83_i1</text>
</g>
<!-- op4 -->
<g id="node7" class="node">
<title>op4</title>
<ellipse fill="none" stroke="#000000" cx="384.2479" cy="-284.4" rx="27" ry="18"/>
<text text-anchor="middle" x="384.2479" y="-280.2" font-family="Times,serif" font-size="14.00" fill="#000000">+</text>
</g>
<!-- op8&#45;&#45;op4 -->
<g id="edge17" class="edge">
<title>op8&#45;&#45;op4</title>
<path fill="none" stroke="#000000" d="M309.3574,-444.6476C325.225,-410.6946 360.2114,-335.8323 376.1054,-301.8228"/>
<text text-anchor="middle" x="362.9155" y="-369" font-family="Times,serif" font-size="14.00" fill="#000000">sum</text>
</g>
<!-- op12 -->
<g id="node8" class="node">
<title>op12</title>
<ellipse fill="none" stroke="#000000" cx="384.2479" cy="-195.6" rx="27" ry="18"/>
<text text-anchor="middle" x="384.2479" y="-191.4" font-family="Times,serif" font-size="14.00" fill="#000000">+</text>
</g>
<!-- op16&#45;&#45;op12 -->
<g id="edge7" class="edge">
<title>op16&#45;&#45;op12</title>
<path fill="none" stroke="#000000" d="M93.7535,-447.6772C147.0588,-401.4214 314.2393,-256.3501 367.6606,-209.9936"/>
<text text-anchor="middle" x="249.9155" y="-324.6" font-family="Times,serif" font-size="14.00" fill="#000000">sum</text>
</g>
<!-- op20 -->
<g id="node9" class="node">
<title>op20</title>
<ellipse fill="none" stroke="#000000" cx="508.2479" cy="-106.8" rx="27" ry="18"/>
<text text-anchor="middle" x="508.2479" y="-102.6" font-family="Times,serif" font-size="14.00" fill="#000000">+</text>
</g>
<!-- op19&#45;&#45;op20 -->
<g id="edge1" class="edge">
<title>op19&#45;&#45;op20</title>
<path fill="none" stroke="#000000" d="M572.7411,-444.1025C568.6485,-426.2606 563.2479,-398.0153 563.2479,-373.2 563.2479,-373.2 563.2479,-373.2 563.2479,-195.6 563.2479,-165.8599 540.6758,-137.7807 524.4522,-121.4398"/>
<text text-anchor="middle" x="602.1364" y="-280.2" font-family="Times,serif" font-size="14.00" fill="#000000">temp_l83_i10</text>
</g>
<!-- op2&#45;&#45;op4 -->
<g id="edge16" class="edge">
<title>op2&#45;&#45;op4</title>
<path fill="none" stroke="#000000" d="M417.95,-355.656C410.539,-339.987 399.7473,-317.1703 392.3855,-301.6054"/>
<text text-anchor="middle" x="420.9155" y="-324.6" font-family="Times,serif" font-size="14.00" fill="#000000">sum</text>
</g>
<!-- op4&#45;&#45;op12 -->
<g id="edge6" class="edge">
<title>op4&#45;&#45;op12</title>
<path fill="none" stroke="#000000" d="M384.2479,-266.0006C384.2479,-250.6587 384.2479,-228.922 384.2479,-213.672"/>
<text text-anchor="middle" x="395.9155" y="-235.8" font-family="Times,serif" font-size="14.00" fill="#000000">sum</text>
</g>
<!-- op12&#45;&#45;op20 -->
<g id="edge2" class="edge">
<title>op12&#45;&#45;op20</title>
<path fill="none" stroke="#000000" d="M402.8119,-182.3057C426.1884,-165.5651 466.1206,-136.9685 489.5569,-120.1851"/>
<text text-anchor="middle" x="469.9155" y="-147" font-family="Times,serif" font-size="14.00" fill="#000000">sum</text>
</g>
<!-- End -->
<g id="node10" class="node">
<title>End</title>
<ellipse fill="none" stroke="#000000" cx="508.2479" cy="-18" rx="27" ry="18"/>
<text text-anchor="middle" x="508.2479" y="-13.8" font-family="Times,serif" font-size="14.00" fill="#000000">end</text>
</g>
<!-- op20&#45;&#45;End -->
<g id="edge3" class="edge">
<title>op20&#45;&#45;End</title>
<path fill="none" stroke="#000000" d="M508.2479,-88.4006C508.2479,-73.0587 508.2479,-51.322 508.2479,-36.072"/>
<text text-anchor="middle" x="520.6932" y="-58.2" font-family="Times,serif" font-size="14.00" fill="#000000">*out</text>
</g>
</g>
</svg>
