<?xml version="1.0" encoding="UTF-8" standalone="no"?>
<!DOCTYPE svg PUBLIC "-//W3C//DTD SVG 1.1//EN"
 "http://www.w3.org/Graphics/SVG/1.1/DTD/svg11.dtd">
<!-- Generated by graphviz version 2.40.1 (20161225.0304)
 -->
<!-- Title: %0 Pages: 1 -->
<svg width="1173pt" height="666pt"
 viewBox="0.00 0.00 1173.46 665.60" xmlns="http://www.w3.org/2000/svg" xmlns:xlink="http://www.w3.org/1999/xlink">
<g id="graph0" class="graph" transform="scale(1 1) rotate(0) translate(4 661.6)">
<title>%0</title>
<polygon fill="#ffffff" stroke="transparent" points="-4,4 -4,-661.6 1169.4601,-661.6 1169.4601,4 -4,4"/>
<!-- Start -->
<g id="node1" class="node">
<title>Start</title>
<ellipse fill="none" stroke="#000000" cx="580.4601" cy="-639.6" rx="27.8228" ry="18"/>
<text text-anchor="middle" x="580.4601" y="-635.4" font-family="Times,serif" font-size="14.00" fill="#000000">start</text>
</g>
<!-- op1 -->
<g id="node2" class="node">
<title>op1</title>
<ellipse fill="none" stroke="#000000" cx="1073.4601" cy="-550.8" rx="27" ry="18"/>
<text text-anchor="middle" x="1073.4601" y="-546.6" font-family="Times,serif" font-size="14.00" fill="#000000">*</text>
</g>
<!-- Start&#45;&#45;op1 -->
<g id="edge27" class="edge">
<title>Start&#45;&#45;op1</title>
<path fill="none" stroke="#000000" d="M608.195,-638.2641C684.5063,-634.3871 896.3695,-622.2126 963.4601,-603.6 996.5281,-594.4261 1031.7941,-575.7191 1053.2341,-563.218"/>
<text text-anchor="middle" x="1026.1207" y="-591" font-family="Times,serif" font-size="14.00" fill="#000000">y_0[0]</text>
</g>
<!-- Start&#45;&#45;op1 -->
<g id="edge29" class="edge">
<title>Start&#45;&#45;op1</title>
<path fill="none" stroke="#000000" d="M608.1812,-639.072C703.2417,-637.0435 1012.1663,-628.5729 1048.4601,-603.6 1060.0741,-595.6087 1066.4464,-580.7292 1069.8452,-568.7976"/>
<text text-anchor="middle" x="1082.1207" y="-591" font-family="Times,serif" font-size="14.00" fill="#000000">x_0[0]</text>
</g>
<!-- op19 -->
<g id="node3" class="node">
<title>op19</title>
<ellipse fill="none" stroke="#000000" cx="40.4601" cy="-550.8" rx="27" ry="18"/>
<text text-anchor="middle" x="40.4601" y="-546.6" font-family="Times,serif" font-size="14.00" fill="#000000">*</text>
</g>
<!-- Start&#45;&#45;op19 -->
<g id="edge2" class="edge">
<title>Start&#45;&#45;op19</title>
<path fill="none" stroke="#000000" d="M552.7151,-638.5677C447.1771,-634.5291 75.6782,-619.2509 56.1389,-603.6 45.8396,-595.3503 42.0882,-580.6518 40.818,-568.8543"/>
<text text-anchor="middle" x="75.1207" y="-591" font-family="Times,serif" font-size="14.00" fill="#000000">x_3[0]</text>
</g>
<!-- Start&#45;&#45;op19 -->
<g id="edge15" class="edge">
<title>Start&#45;&#45;op19</title>
<path fill="none" stroke="#000000" d="M552.5347,-638.9071C439.771,-635.9757 23.1229,-623.8068 4.1389,-603.6 -7.4407,-591.2745 7.5351,-574.9715 21.6141,-563.7594"/>
<text text-anchor="middle" x="23.1207" y="-591" font-family="Times,serif" font-size="14.00" fill="#000000">y_3[0]</text>
</g>
<!-- callNode_parallel_0 -->
<g id="node4" class="node">
<title>callNode_parallel_0</title>
<ellipse fill="none" stroke="#000000" cx="550.4601" cy="-550.8" rx="89.1646" ry="18"/>
<text text-anchor="middle" x="550.4601" y="-546.6" font-family="Times,serif" font-size="14.00" fill="#000000">callNode_parallel_0</text>
</g>
<!-- Start&#45;&#45;callNode_parallel_0 -->
<g id="edge3" class="edge">
<title>Start&#45;&#45;callNode_parallel_0</title>
<path fill="none" stroke="#000000" d="M608.0949,-637.3641C648.9693,-633.4191 722.4502,-623.6681 738.4601,-603.6 743.1166,-597.7632 743.2175,-592.5548 738.4601,-586.8 724.9883,-570.5037 678.4585,-561.5134 635.0637,-556.5923"/>
<text text-anchor="middle" x="761.1207" y="-591" font-family="Times,serif" font-size="14.00" fill="#000000">y_1[0]</text>
</g>
<!-- Start&#45;&#45;callNode_parallel_0 -->
<g id="edge5" class="edge">
<title>Start&#45;&#45;callNode_parallel_0</title>
<path fill="none" stroke="#000000" d="M608.4332,-638.8975C658.7723,-636.9795 761.4436,-629.8645 783.4601,-603.6 788.2568,-597.8778 788.3201,-592.4685 783.4601,-586.8 773.4695,-575.1472 695.1924,-564.7904 632.0821,-558.2115"/>
<text text-anchor="middle" x="806.1207" y="-591" font-family="Times,serif" font-size="14.00" fill="#000000">x_2[0]</text>
</g>
<!-- Start&#45;&#45;callNode_parallel_0 -->
<g id="edge6" class="edge">
<title>Start&#45;&#45;callNode_parallel_0</title>
<path fill="none" stroke="#000000" d="M608.3626,-637.5828C670.1478,-632.833 814.1902,-620.0909 828.4601,-603.6 833.3459,-597.9538 833.3892,-592.4085 828.4601,-586.8 815.7699,-572.3605 712.8483,-562.0316 635.9087,-556.2396"/>
<text text-anchor="middle" x="851.1207" y="-591" font-family="Times,serif" font-size="14.00" fill="#000000">y_1[0]</text>
</g>
<!-- Start&#45;&#45;callNode_parallel_0 -->
<g id="edge8" class="edge">
<title>Start&#45;&#45;callNode_parallel_0</title>
<path fill="none" stroke="#000000" d="M608.1303,-638.2522C677.7731,-634.5782 856.0141,-623.3207 873.4601,-603.6 878.4075,-598.0076 878.4389,-592.3645 873.4601,-586.8 857.9406,-569.4547 728.2459,-559.5134 638.0021,-554.6375"/>
<text text-anchor="middle" x="896.1207" y="-591" font-family="Times,serif" font-size="14.00" fill="#000000">x_1[0]</text>
</g>
<!-- Start&#45;&#45;callNode_parallel_0 -->
<g id="edge9" class="edge">
<title>Start&#45;&#45;callNode_parallel_0</title>
<path fill="none" stroke="#000000" d="M608.0941,-638.7335C685.0987,-636.0364 897.8194,-626.5559 918.4601,-603.6 923.4524,-598.0477 923.4763,-592.3308 918.4601,-586.8 900.0239,-566.4722 742.0223,-557.2385 639.1318,-553.3478"/>
<text text-anchor="middle" x="941.1207" y="-591" font-family="Times,serif" font-size="14.00" fill="#000000">y_2[0]</text>
</g>
<!-- Start&#45;&#45;callNode_parallel_0 -->
<g id="edge13" class="edge">
<title>Start&#45;&#45;callNode_parallel_0</title>
<path fill="none" stroke="#000000" d="M552.5905,-638.5443C452.5424,-634.6219 116.587,-620.2518 101.1389,-603.6 96.0608,-598.1261 96.0744,-592.2865 101.1389,-586.8 113.2313,-573.7 335.8319,-561.0066 463.0845,-554.7802"/>
<text text-anchor="middle" x="120.1207" y="-591" font-family="Times,serif" font-size="14.00" fill="#000000">x_2[1]</text>
</g>
<!-- Start&#45;&#45;callNode_parallel_0 -->
<g id="edge16" class="edge">
<title>Start&#45;&#45;callNode_parallel_0</title>
<path fill="none" stroke="#000000" d="M552.7513,-639.3404C463.4737,-638.2198 187.6024,-632.4328 161.1389,-603.6 156.0901,-598.0991 156.1081,-592.3174 161.1389,-586.8 180.9763,-565.0437 352.7492,-556.2417 461.4021,-552.8281"/>
<text text-anchor="middle" x="180.1207" y="-591" font-family="Times,serif" font-size="14.00" fill="#000000">x_1[0]</text>
</g>
<!-- Start&#45;&#45;callNode_parallel_0 -->
<g id="edge18" class="edge">
<title>Start&#45;&#45;callNode_parallel_0</title>
<path fill="none" stroke="#000000" d="M552.5404,-638.9111C471.9522,-636.6368 243.2751,-628.0648 221.1389,-603.6 216.1293,-598.0634 216.1543,-592.3592 221.1389,-586.8 237.0731,-569.029 370.8127,-559.1678 462.879,-554.4306"/>
<text text-anchor="middle" x="240.1207" y="-591" font-family="Times,serif" font-size="14.00" fill="#000000">y_2[3]</text>
</g>
<!-- Start&#45;&#45;callNode_parallel_0 -->
<g id="edge19" class="edge">
<title>Start&#45;&#45;callNode_parallel_0</title>
<path fill="none" stroke="#000000" d="M552.7127,-638.3244C481.9427,-634.7882 299.0249,-623.766 281.1389,-603.6 276.1844,-598.0139 276.2214,-592.4186 281.1389,-586.8 293.2943,-572.9117 391.2391,-562.55 465.5397,-556.5935"/>
<text text-anchor="middle" x="300.1207" y="-591" font-family="Times,serif" font-size="14.00" fill="#000000">y_1[0]</text>
</g>
<!-- Start&#45;&#45;callNode_parallel_0 -->
<g id="edge20" class="edge">
<title>Start&#45;&#45;callNode_parallel_0</title>
<path fill="none" stroke="#000000" d="M552.6316,-637.4342C492.5142,-632.4732 354.8103,-619.4818 341.1389,-603.6 336.2677,-597.9412 336.3274,-592.5097 341.1389,-586.8 349.7822,-576.5433 416.218,-566.3164 471.9605,-559.3987"/>
<text text-anchor="middle" x="360.1207" y="-591" font-family="Times,serif" font-size="14.00" fill="#000000">x_1[0]</text>
</g>
<!-- Start&#45;&#45;callNode_parallel_0 -->
<g id="edge21" class="edge">
<title>Start&#45;&#45;callNode_parallel_0</title>
<path fill="none" stroke="#000000" d="M552.8659,-638.1931C507.4299,-635.2356 420.0036,-626.6283 401.1389,-603.6 396.4072,-597.824 396.5192,-592.6659 401.1389,-586.8 410.7497,-574.5968 442.537,-566.045 474.3263,-560.3484"/>
<text text-anchor="middle" x="420.1207" y="-591" font-family="Times,serif" font-size="14.00" fill="#000000">x_2[2]</text>
</g>
<!-- Start&#45;&#45;callNode_parallel_0 -->
<g id="edge23" class="edge">
<title>Start&#45;&#45;callNode_parallel_0</title>
<path fill="none" stroke="#000000" d="M553.3805,-635.2409C521.7037,-629.5248 472.1707,-618.4513 461.1389,-603.6 447.9803,-585.8855 467.8674,-573.0343 492.1875,-564.4484"/>
<text text-anchor="middle" x="480.1207" y="-591" font-family="Times,serif" font-size="14.00" fill="#000000">y_2[2]</text>
</g>
<!-- Start&#45;&#45;callNode_parallel_0 -->
<g id="edge26" class="edge">
<title>Start&#45;&#45;callNode_parallel_0</title>
<path fill="none" stroke="#000000" d="M555.5595,-631.276C542.8417,-625.6133 528.5253,-616.7227 521.1389,-603.6 514.5558,-591.9043 521.8861,-578.7043 530.8621,-568.4282"/>
<text text-anchor="middle" x="540.1207" y="-591" font-family="Times,serif" font-size="14.00" fill="#000000">y_1[0]</text>
</g>
<!-- Start&#45;&#45;callNode_parallel_0 -->
<g id="edge28" class="edge">
<title>Start&#45;&#45;callNode_parallel_0</title>
<path fill="none" stroke="#000000" d="M574.3892,-621.63C569.2186,-606.325 561.8224,-584.4322 556.625,-569.0481"/>
<text text-anchor="middle" x="587.1207" y="-591" font-family="Times,serif" font-size="14.00" fill="#000000">y_2[1]</text>
</g>
<!-- Start&#45;&#45;callNode_parallel_0 -->
<g id="edge30" class="edge">
<title>Start&#45;&#45;callNode_parallel_0</title>
<path fill="none" stroke="#000000" d="M597.3413,-624.7662C607.2816,-614.1619 616.6266,-599.5679 609.4601,-586.8 604.8791,-578.6383 597.6124,-572.1081 589.7219,-566.9729"/>
<text text-anchor="middle" x="631.1207" y="-591" font-family="Times,serif" font-size="14.00" fill="#000000">x_1[0]</text>
</g>
<!-- Start&#45;&#45;callNode_parallel_0 -->
<g id="edge32" class="edge">
<title>Start&#45;&#45;callNode_parallel_0</title>
<path fill="none" stroke="#000000" d="M606.2768,-632.6157C632.9074,-624.0796 668.5793,-608.1005 653.4601,-586.8 647.5394,-578.4586 628.2825,-570.7481 607.9956,-564.6206"/>
<text text-anchor="middle" x="676.1207" y="-591" font-family="Times,serif" font-size="14.00" fill="#000000">x_2[3]</text>
</g>
<!-- op2 -->
<g id="node6" class="node">
<title>op2</title>
<ellipse fill="none" stroke="#000000" cx="1073.4601" cy="-462" rx="27" ry="18"/>
<text text-anchor="middle" x="1073.4601" y="-457.8" font-family="Times,serif" font-size="14.00" fill="#000000">+</text>
</g>
<!-- Start&#45;&#45;op2 -->
<g id="edge1" class="edge">
<title>Start&#45;&#45;op2</title>
<path fill="none" stroke="#000000" d="M608.2325,-639.292C710.6034,-637.9406 1063.0614,-631.2994 1104.4601,-603.6 1146.718,-575.3258 1175.5385,-541.0339 1148.4601,-498 1137.7682,-481.008 1116.5759,-471.8549 1099.4381,-467.0377"/>
<text text-anchor="middle" x="1161.9601" y="-546.6" font-family="Times,serif" font-size="14.00" fill="#000000">0</text>
</g>
<!-- op1&#45;&#45;op2 -->
<g id="edge4" class="edge">
<title>op1&#45;&#45;op2</title>
<path fill="none" stroke="#000000" d="M1073.4601,-532.4006C1073.4601,-517.0587 1073.4601,-495.322 1073.4601,-480.072"/>
<text text-anchor="middle" x="1108.8486" y="-502.2" font-family="Times,serif" font-size="14.00" fill="#000000">temp_l83_i1</text>
</g>
<!-- op20 -->
<g id="node11" class="node">
<title>op20</title>
<ellipse fill="none" stroke="#000000" cx="217.4601" cy="-106.8" rx="27" ry="18"/>
<text text-anchor="middle" x="217.4601" y="-102.6" font-family="Times,serif" font-size="14.00" fill="#000000">+</text>
</g>
<!-- op19&#45;&#45;op20 -->
<g id="edge25" class="edge">
<title>op19&#45;&#45;op20</title>
<path fill="none" stroke="#000000" d="M67.4079,-548.1822C113.2407,-542.0843 201.4601,-522.4904 201.4601,-462 201.4601,-462 201.4601,-462 201.4601,-195.6 201.4601,-170.6928 207.6322,-142.4697 212.3096,-124.6579"/>
<text text-anchor="middle" x="240.3486" y="-324.6" font-family="Times,serif" font-size="14.00" fill="#000000">temp_l83_i10</text>
</g>
<!-- parallel_0 -->
<g id="node5" class="node">
<title>parallel_0</title>
<ellipse fill="none" stroke="#000000" cx="607.4601" cy="-462" rx="49.7962" ry="18"/>
<text text-anchor="middle" x="607.4601" y="-457.8" font-family="Times,serif" font-size="14.00" fill="#000000">parallel_0</text>
</g>
<!-- callNode_parallel_0&#45;&#45;parallel_0 -->
<g id="edge34" class="edge">
<title>callNode_parallel_0&#45;&#45;parallel_0</title>
<path fill="none" stroke="#000000" d="M509.9826,-534.6376C492.2981,-525.135 477.719,-512.2134 488.2735,-498 497.3586,-485.7654 532.5923,-476.087 562.4143,-469.8605"/>
<text text-anchor="middle" x="540.5534" y="-502.2" font-family="Times,serif" font-size="14.00" fill="#000000">call_parallel_0_20</text>
</g>
<!-- callNode_parallel_0&#45;&#45;parallel_0 -->
<g id="edge35" class="edge">
<title>callNode_parallel_0&#45;&#45;parallel_0</title>
<path fill="none" stroke="#000000" d="M575.5336,-533.4605C581.8057,-528.1008 588.0068,-521.7557 592.4601,-514.8 599.1398,-504.3669 602.9036,-490.9142 604.9903,-480.1991"/>
<text text-anchor="middle" x="652.5534" y="-502.2" font-family="Times,serif" font-size="14.00" fill="#000000">call_parallel_0_21</text>
</g>
<!-- op8 -->
<g id="node7" class="node">
<title>op8</title>
<ellipse fill="none" stroke="#000000" cx="719.4601" cy="-373.2" rx="27" ry="18"/>
<text text-anchor="middle" x="719.4601" y="-369" font-family="Times,serif" font-size="14.00" fill="#000000">+</text>
</g>
<!-- parallel_0&#45;&#45;op8 -->
<g id="edge24" class="edge">
<title>parallel_0&#45;&#45;op8</title>
<path fill="none" stroke="#000000" d="M624.1029,-445.0102C635.0262,-434.2357 649.867,-420.289 664.0533,-409.2 675.1699,-400.5105 688.3948,-391.8604 699.1358,-385.2179"/>
<text text-anchor="middle" x="709.1635" y="-413.4" font-family="Times,serif" font-size="14.00" fill="#000000">sum_array_0[1]</text>
</g>
<!-- parallel_0&#45;&#45;op8 -->
<g id="edge31" class="edge">
<title>parallel_0&#45;&#45;op8</title>
<path fill="none" stroke="#000000" d="M654.8617,-456.6301C692.6935,-451.2531 741.3051,-441.5162 753.4601,-426 763.411,-413.2975 750.4924,-397.635 737.8213,-386.6805"/>
<text text-anchor="middle" x="802.1635" y="-413.4" font-family="Times,serif" font-size="14.00" fill="#000000">sum_array_0[0]</text>
</g>
<!-- op16 -->
<g id="node8" class="node">
<title>op16</title>
<ellipse fill="none" stroke="#000000" cx="519.4601" cy="-373.2" rx="27" ry="18"/>
<text text-anchor="middle" x="519.4601" y="-369" font-family="Times,serif" font-size="14.00" fill="#000000">+</text>
</g>
<!-- parallel_0&#45;&#45;op16 -->
<g id="edge11" class="edge">
<title>parallel_0&#45;&#45;op16</title>
<path fill="none" stroke="#000000" d="M558.7147,-458.2007C514.7398,-453.6406 454.7646,-444.2112 440.0533,-426 422.1076,-403.7849 464.4008,-387.5346 493.8997,-379.2972"/>
<text text-anchor="middle" x="485.1635" y="-413.4" font-family="Times,serif" font-size="14.00" fill="#000000">sum_array_1[0]</text>
</g>
<!-- parallel_0&#45;&#45;op16 -->
<g id="edge14" class="edge">
<title>parallel_0&#45;&#45;op16</title>
<path fill="none" stroke="#000000" d="M579.1739,-446.9764C569.871,-441.2009 559.91,-434.0407 552.0533,-426 541.965,-415.6753 533.5078,-401.6928 527.7382,-390.7105"/>
<text text-anchor="middle" x="597.1635" y="-413.4" font-family="Times,serif" font-size="14.00" fill="#000000">sum_array_1[1]</text>
</g>
<!-- op4 -->
<g id="node9" class="node">
<title>op4</title>
<ellipse fill="none" stroke="#000000" cx="719.4601" cy="-284.4" rx="27" ry="18"/>
<text text-anchor="middle" x="719.4601" y="-280.2" font-family="Times,serif" font-size="14.00" fill="#000000">+</text>
</g>
<!-- op2&#45;&#45;op4 -->
<g id="edge7" class="edge">
<title>op2&#45;&#45;op4</title>
<path fill="none" stroke="#000000" d="M1051.8487,-451.1577C988.6505,-419.4515 804.6489,-327.1388 741.2385,-295.3261"/>
<text text-anchor="middle" x="944.1277" y="-369" font-family="Times,serif" font-size="14.00" fill="#000000">sum</text>
</g>
<!-- op8&#45;&#45;op4 -->
<g id="edge22" class="edge">
<title>op8&#45;&#45;op4</title>
<path fill="none" stroke="#000000" d="M719.4601,-354.8006C719.4601,-339.4587 719.4601,-317.722 719.4601,-302.472"/>
<text text-anchor="middle" x="731.1277" y="-324.6" font-family="Times,serif" font-size="14.00" fill="#000000">sum</text>
</g>
<!-- op12 -->
<g id="node10" class="node">
<title>op12</title>
<ellipse fill="none" stroke="#000000" cx="519.4601" cy="-195.6" rx="27" ry="18"/>
<text text-anchor="middle" x="519.4601" y="-191.4" font-family="Times,serif" font-size="14.00" fill="#000000">+</text>
</g>
<!-- op16&#45;&#45;op12 -->
<g id="edge10" class="edge">
<title>op16&#45;&#45;op12</title>
<path fill="none" stroke="#000000" d="M519.4601,-355.1934C519.4601,-321.1537 519.4601,-247.7307 519.4601,-213.6543"/>
<text text-anchor="middle" x="531.1277" y="-280.2" font-family="Times,serif" font-size="14.00" fill="#000000">sum</text>
</g>
<!-- op4&#45;&#45;op12 -->
<g id="edge17" class="edge">
<title>op4&#45;&#45;op12</title>
<path fill="none" stroke="#000000" d="M696.9064,-274.3861C658.4948,-257.3314 580.8023,-222.8359 542.2383,-205.7135"/>
<text text-anchor="middle" x="649.1277" y="-235.8" font-family="Times,serif" font-size="14.00" fill="#000000">sum</text>
</g>
<!-- op12&#45;&#45;op20 -->
<g id="edge12" class="edge">
<title>op12&#45;&#45;op20</title>
<path fill="none" stroke="#000000" d="M494.7462,-188.3331C438.1157,-171.6815 299.4741,-130.9154 242.5155,-114.1673"/>
<text text-anchor="middle" x="408.1277" y="-147" font-family="Times,serif" font-size="14.00" fill="#000000">sum</text>
</g>
<!-- End -->
<g id="node12" class="node">
<title>End</title>
<ellipse fill="none" stroke="#000000" cx="217.4601" cy="-18" rx="27" ry="18"/>
<text text-anchor="middle" x="217.4601" y="-13.8" font-family="Times,serif" font-size="14.00" fill="#000000">end</text>
</g>
<!-- op20&#45;&#45;End -->
<g id="edge33" class="edge">
<title>op20&#45;&#45;End</title>
<path fill="none" stroke="#000000" d="M217.4601,-88.4006C217.4601,-73.0587 217.4601,-51.322 217.4601,-36.072"/>
<text text-anchor="middle" x="229.9054" y="-58.2" font-family="Times,serif" font-size="14.00" fill="#000000">*out</text>
</g>
</g>
</svg>
