<?xml version="1.0" encoding="UTF-8" standalone="no"?>
<!DOCTYPE svg PUBLIC "-//W3C//DTD SVG 1.1//EN"
 "http://www.w3.org/Graphics/SVG/1.1/DTD/svg11.dtd">
<!-- Generated by graphviz version 2.40.1 (20161225.0304)
 -->
<!-- Title: %0 Pages: 1 -->
<svg width="1113pt" height="472pt"
 viewBox="0.00 0.00 1113.15 472.20" xmlns="http://www.w3.org/2000/svg" xmlns:xlink="http://www.w3.org/1999/xlink">
<g id="graph0" class="graph" transform="scale(1 1) rotate(0) translate(4 468.2)">
<title>%0</title>
<polygon fill="#ffffff" stroke="transparent" points="-4,4 -4,-468.2 1109.1501,-468.2 1109.1501,4 -4,4"/>
<!-- Start -->
<g id="node1" class="node">
<title>Start</title>
<ellipse fill="none" stroke="#000000" cx="603.1501" cy="-446.2" rx="27.8228" ry="18"/>
<text text-anchor="middle" x="603.1501" y="-442" font-family="Times,serif" font-size="14.00" fill="#000000">start</text>
</g>
<!-- callNode_parallel_0 -->
<g id="node2" class="node">
<title>callNode_parallel_0</title>
<ellipse fill="none" stroke="#000000" cx="482.1501" cy="-357.4" rx="89.1646" ry="18"/>
<text text-anchor="middle" x="482.1501" y="-353.2" font-family="Times,serif" font-size="14.00" fill="#000000">callNode_parallel_0</text>
</g>
<!-- Start&#45;&#45;callNode_parallel_0 -->
<g id="edge1" class="edge">
<title>Start&#45;&#45;callNode_parallel_0</title>
<path fill="none" stroke="#000000" d="M575.293,-445.578C459.7945,-442.866 23.6597,-431.2577 3.8289,-410.2 -1.2901,-404.7643 -1.2488,-398.8743 3.8289,-393.4 16.8987,-379.3096 259.8999,-366.8187 394.3855,-360.9489"/>
<text text-anchor="middle" x="22.8107" y="-397.6" font-family="Times,serif" font-size="14.00" fill="#000000">x_1[0]</text>
</g>
<!-- Start&#45;&#45;callNode_parallel_0 -->
<g id="edge2" class="edge">
<title>Start&#45;&#45;callNode_parallel_0</title>
<path fill="none" stroke="#000000" d="M575.1998,-445.3825C467.0896,-442.0872 81.4585,-429.0456 63.8289,-410.2 58.7281,-404.7473 58.7806,-398.9014 63.8289,-393.4 85.6065,-369.6678 276.7231,-361.5455 392.9642,-358.791"/>
<text text-anchor="middle" x="82.8107" y="-397.6" font-family="Times,serif" font-size="14.00" fill="#000000">x_2[3]</text>
</g>
<!-- Start&#45;&#45;callNode_parallel_0 -->
<g id="edge3" class="edge">
<title>Start&#45;&#45;callNode_parallel_0</title>
<path fill="none" stroke="#000000" d="M575.2805,-445.1443C475.2324,-441.2219 139.277,-426.8518 123.8289,-410.2 118.7508,-404.7261 118.82,-398.9373 123.8289,-393.4 141.6279,-373.7232 293.3701,-364.3126 393.5979,-360.2051"/>
<text text-anchor="middle" x="142.8107" y="-397.6" font-family="Times,serif" font-size="14.00" fill="#000000">y_1[0]</text>
</g>
<!-- Start&#45;&#45;callNode_parallel_0 -->
<g id="edge5" class="edge">
<title>Start&#45;&#45;callNode_parallel_0</title>
<path fill="none" stroke="#000000" d="M575.4413,-445.9404C486.1637,-444.8198 210.2925,-439.0328 183.8289,-410.2 178.7801,-404.6991 178.8756,-398.9871 183.8289,-393.4 197.7802,-377.6639 312.5158,-367.4685 395.5359,-362.0772"/>
<text text-anchor="middle" x="202.8107" y="-397.6" font-family="Times,serif" font-size="14.00" fill="#000000">x_2[0]</text>
</g>
<!-- Start&#45;&#45;callNode_parallel_0 -->
<g id="edge6" class="edge">
<title>Start&#45;&#45;callNode_parallel_0</title>
<path fill="none" stroke="#000000" d="M575.2305,-445.5111C494.6422,-443.2368 265.9651,-434.6648 243.8289,-410.2 238.8193,-404.6634 238.9594,-399.0603 243.8289,-393.4 254.1307,-381.4252 335.1953,-371.0519 399.9605,-364.5571"/>
<text text-anchor="middle" x="262.8107" y="-397.6" font-family="Times,serif" font-size="14.00" fill="#000000">y_1[0]</text>
</g>
<!-- Start&#45;&#45;callNode_parallel_0 -->
<g id="edge8" class="edge">
<title>Start&#45;&#45;callNode_parallel_0</title>
<path fill="none" stroke="#000000" d="M575.4027,-444.9244C504.6327,-441.3882 321.7149,-430.366 303.8289,-410.2 298.8745,-404.6139 299.1004,-399.1786 303.8289,-393.4 316.2797,-378.1844 358.7958,-369.2538 399.1892,-364.0938"/>
<text text-anchor="middle" x="322.8107" y="-397.6" font-family="Times,serif" font-size="14.00" fill="#000000">x_1[0]</text>
</g>
<!-- Start&#45;&#45;callNode_parallel_0 -->
<g id="edge9" class="edge">
<title>Start&#45;&#45;callNode_parallel_0</title>
<path fill="none" stroke="#000000" d="M575.3216,-444.0342C515.2042,-439.0732 377.5003,-426.0818 363.8289,-410.2 345.1913,-388.5491 374.1656,-375.3854 408.0988,-367.6165"/>
<text text-anchor="middle" x="382.8107" y="-397.6" font-family="Times,serif" font-size="14.00" fill="#000000">y_2[0]</text>
</g>
<!-- Start&#45;&#45;callNode_parallel_0 -->
<g id="edge13" class="edge">
<title>Start&#45;&#45;callNode_parallel_0</title>
<path fill="none" stroke="#000000" d="M575.5559,-444.7931C530.1199,-441.8356 442.6936,-433.2283 423.8289,-410.2 412.8367,-396.7816 427.1042,-383.6822 444.2743,-373.8877"/>
<text text-anchor="middle" x="442.8107" y="-397.6" font-family="Times,serif" font-size="14.00" fill="#000000">x_2[1]</text>
</g>
<!-- Start&#45;&#45;callNode_parallel_0 -->
<g id="edge16" class="edge">
<title>Start&#45;&#45;callNode_parallel_0</title>
<path fill="none" stroke="#000000" d="M576.1481,-441.7823C544.5495,-436.0071 495.0953,-424.8741 483.8289,-410.2 476.4006,-400.5249 476.2377,-386.6514 477.7959,-375.5534"/>
<text text-anchor="middle" x="502.8107" y="-397.6" font-family="Times,serif" font-size="14.00" fill="#000000">x_1[0]</text>
</g>
<!-- Start&#45;&#45;callNode_parallel_0 -->
<g id="edge18" class="edge">
<title>Start&#45;&#45;callNode_parallel_0</title>
<path fill="none" stroke="#000000" d="M582.0284,-434.5053C570.4549,-427.8219 556.0257,-419.0318 543.8289,-410.2 528.8727,-399.3701 513.0723,-385.7979 501.208,-375.1259"/>
<text text-anchor="middle" x="562.8107" y="-397.6" font-family="Times,serif" font-size="14.00" fill="#000000">y_2[3]</text>
</g>
<!-- Start&#45;&#45;callNode_parallel_0 -->
<g id="edge19" class="edge">
<title>Start&#45;&#45;callNode_parallel_0</title>
<path fill="none" stroke="#000000" d="M599.5494,-428.169C596.4332,-416.8359 590.8454,-402.659 581.1501,-393.4 570.5031,-383.232 556.7629,-375.899 542.9276,-370.6235"/>
<text text-anchor="middle" x="611.8107" y="-397.6" font-family="Times,serif" font-size="14.00" fill="#000000">y_1[0]</text>
</g>
<!-- Start&#45;&#45;callNode_parallel_0 -->
<g id="edge20" class="edge">
<title>Start&#45;&#45;callNode_parallel_0</title>
<path fill="none" stroke="#000000" d="M620.7343,-432.0746C632.3401,-421.0347 643.7768,-405.573 634.1501,-393.4 624.3094,-380.9563 591.7143,-372.3674 559.2193,-366.7089"/>
<text text-anchor="middle" x="656.8107" y="-397.6" font-family="Times,serif" font-size="14.00" fill="#000000">x_1[0]</text>
</g>
<!-- Start&#45;&#45;callNode_parallel_0 -->
<g id="edge21" class="edge">
<title>Start&#45;&#45;callNode_parallel_0</title>
<path fill="none" stroke="#000000" d="M629.04,-439.4294C657.3875,-430.7776 696.6412,-414.377 679.1501,-393.4 664.7054,-376.0765 614.297,-367.0655 568.0909,-362.3911"/>
<text text-anchor="middle" x="702.8107" y="-397.6" font-family="Times,serif" font-size="14.00" fill="#000000">x_2[2]</text>
</g>
<!-- Start&#45;&#45;callNode_parallel_0 -->
<g id="edge23" class="edge">
<title>Start&#45;&#45;callNode_parallel_0</title>
<path fill="none" stroke="#000000" d="M630.7522,-443.9195C674.832,-439.2581 753.4181,-426.1643 725.1501,-393.4 714.5635,-381.1295 630.8815,-370.7388 564.6371,-364.3215"/>
<text text-anchor="middle" x="749.8107" y="-397.6" font-family="Times,serif" font-size="14.00" fill="#000000">y_2[2]</text>
</g>
<!-- Start&#45;&#45;callNode_parallel_0 -->
<g id="edge26" class="edge">
<title>Start&#45;&#45;callNode_parallel_0</title>
<path fill="none" stroke="#000000" d="M630.9091,-444.4058C674.2092,-440.9642 754.6921,-431.7686 772.1501,-410.2 776.8478,-404.3963 777.094,-398.9955 772.1501,-393.4 758.7134,-378.1921 648.7913,-367.9316 568.2393,-362.3748"/>
<text text-anchor="middle" x="793.8107" y="-397.6" font-family="Times,serif" font-size="14.00" fill="#000000">y_1[0]</text>
</g>
<!-- Start&#45;&#45;callNode_parallel_0 -->
<g id="edge28" class="edge">
<title>Start&#45;&#45;callNode_parallel_0</title>
<path fill="none" stroke="#000000" d="M630.812,-443.5073C685.733,-437.8816 804.2879,-424.2354 816.1501,-410.2 820.9699,-404.4973 821.139,-398.9554 816.1501,-393.4 799.9299,-375.3375 663.524,-365.5421 570.129,-360.9007"/>
<text text-anchor="middle" x="837.8107" y="-397.6" font-family="Times,serif" font-size="14.00" fill="#000000">y_2[1]</text>
</g>
<!-- callNode_epilogue -->
<g id="node4" class="node">
<title>callNode_epilogue</title>
<ellipse fill="none" stroke="#000000" cx="930.1501" cy="-179.8" rx="83.9508" ry="18"/>
<text text-anchor="middle" x="930.1501" y="-175.6" font-family="Times,serif" font-size="14.00" fill="#000000">callNode_epilogue</text>
</g>
<!-- Start&#45;&#45;callNode_epilogue -->
<g id="edge10" class="edge">
<title>Start&#45;&#45;callNode_epilogue</title>
<path fill="none" stroke="#000000" d="M630.7786,-443.9932C693.5511,-438.7455 842.8245,-424.8602 860.1501,-410.2 925.0942,-355.2469 931.0204,-242.0707 930.7197,-197.9619"/>
<text text-anchor="middle" x="936.8107" y="-308.8" font-family="Times,serif" font-size="14.00" fill="#000000">y_0[0]</text>
</g>
<!-- Start&#45;&#45;callNode_epilogue -->
<g id="edge12" class="edge">
<title>Start&#45;&#45;callNode_epilogue</title>
<path fill="none" stroke="#000000" d="M631.0608,-445.0486C692.6454,-442.1166 838.1169,-432.929 881.1501,-410.2 891.046,-404.9732 954.6162,-333.5152 959.1501,-321.4 975.1574,-278.6268 953.7468,-225.1025 940.0313,-197.7329"/>
<text text-anchor="middle" x="981.8107" y="-308.8" font-family="Times,serif" font-size="14.00" fill="#000000">y_3[0]</text>
</g>
<!-- Start&#45;&#45;callNode_epilogue -->
<g id="edge17" class="edge">
<title>Start&#45;&#45;callNode_epilogue</title>
<path fill="none" stroke="#000000" d="M631.0658,-444.8613C695.8268,-441.4351 854.4688,-431.1086 903.1501,-410.2 919.9801,-402.9715 1003.1243,-323.7295 1004.1501,-321.4 1024.3837,-275.4522 979.0137,-223.6926 950.693,-197.3084"/>
<text text-anchor="middle" x="1026.8107" y="-308.8" font-family="Times,serif" font-size="14.00" fill="#000000">x_0[0]</text>
</g>
<!-- Start&#45;&#45;callNode_epilogue -->
<g id="edge22" class="edge">
<title>Start&#45;&#45;callNode_epilogue</title>
<path fill="none" stroke="#000000" d="M631.1982,-444.8054C699.675,-441.1276 873.7576,-430.0578 928.1501,-410.2 990.8107,-387.3237 1019.9328,-381.3668 1049.1501,-321.4 1074.3265,-269.727 1006.1154,-221.0862 962.8044,-196.5006"/>
<text text-anchor="middle" x="1071.8107" y="-308.8" font-family="Times,serif" font-size="14.00" fill="#000000">x_3[0]</text>
</g>
<!-- Start&#45;&#45;callNode_epilogue -->
<g id="edge25" class="edge">
<title>Start&#45;&#45;callNode_epilogue</title>
<path fill="none" stroke="#000000" d="M630.8631,-444.6739C704.0829,-440.4449 901.3599,-427.7211 964.1501,-410.2 1031.5461,-391.3937 1066.5026,-385.6768 1094.1501,-321.4 1120.2355,-260.755 1033.4795,-216.7116 976.3389,-195.009"/>
<text text-anchor="middle" x="1101.6501" y="-308.8" font-family="Times,serif" font-size="14.00" fill="#000000">0</text>
</g>
<!-- parallel_0 -->
<g id="node3" class="node">
<title>parallel_0</title>
<ellipse fill="none" stroke="#000000" cx="603.1501" cy="-268.6" rx="49.7962" ry="18"/>
<text text-anchor="middle" x="603.1501" y="-264.4" font-family="Times,serif" font-size="14.00" fill="#000000">parallel_0</text>
</g>
<!-- callNode_parallel_0&#45;&#45;parallel_0 -->
<g id="edge15" class="edge">
<title>callNode_parallel_0&#45;&#45;parallel_0</title>
<path fill="none" stroke="#000000" d="M475.5066,-339.0586C472.7571,-328.0267 471.6824,-314.2916 478.9635,-304.6 488.6042,-291.7678 526.224,-282.0386 557.5568,-275.9497"/>
<text text-anchor="middle" x="531.2434" y="-308.8" font-family="Times,serif" font-size="14.00" fill="#000000">call_parallel_0_20</text>
</g>
<!-- callNode_parallel_0&#45;&#45;parallel_0 -->
<g id="edge24" class="edge">
<title>callNode_parallel_0&#45;&#45;parallel_0</title>
<path fill="none" stroke="#000000" d="M544.6468,-344.5337C558.6657,-339.2517 572.5166,-331.8262 583.1501,-321.4 592.599,-312.1354 597.6441,-297.9588 600.3024,-286.6273"/>
<text text-anchor="middle" x="647.2434" y="-308.8" font-family="Times,serif" font-size="14.00" fill="#000000">call_parallel_0_21</text>
</g>
<!-- parallel_0&#45;&#45;callNode_epilogue -->
<g id="edge7" class="edge">
<title>parallel_0&#45;&#45;callNode_epilogue</title>
<path fill="none" stroke="#000000" d="M556.1954,-262.3253C515.8878,-255.0934 467.6595,-240.8525 490.7433,-215.8 502.6645,-202.8622 724.1505,-189.9375 848.0065,-183.6816"/>
<text text-anchor="middle" x="535.8535" y="-220" font-family="Times,serif" font-size="14.00" fill="#000000">sum_array_1[0]</text>
</g>
<!-- parallel_0&#45;&#45;callNode_epilogue -->
<g id="edge11" class="edge">
<title>parallel_0&#45;&#45;callNode_epilogue</title>
<path fill="none" stroke="#000000" d="M597.4283,-250.5405C595.0494,-239.1957 594.4847,-225.0165 602.7433,-215.8 618.8428,-197.8333 755.9815,-187.9106 847.5907,-183.2338"/>
<text text-anchor="middle" x="647.8535" y="-220" font-family="Times,serif" font-size="14.00" fill="#000000">sum_array_0[1]</text>
</g>
<!-- parallel_0&#45;&#45;callNode_epilogue -->
<g id="edge14" class="edge">
<title>parallel_0&#45;&#45;callNode_epilogue</title>
<path fill="none" stroke="#000000" d="M639.6312,-256.2494C656.1237,-250.0639 675.5846,-241.907 692.1501,-232.6 703.0595,-226.4708 703.23,-220.7016 714.7433,-215.8 739.7303,-205.1623 804.2013,-195.1574 856.1442,-188.408"/>
<text text-anchor="middle" x="759.8535" y="-220" font-family="Times,serif" font-size="14.00" fill="#000000">sum_array_0[0]</text>
</g>
<!-- parallel_0&#45;&#45;callNode_epilogue -->
<g id="edge27" class="edge">
<title>parallel_0&#45;&#45;callNode_epilogue</title>
<path fill="none" stroke="#000000" d="M650.1977,-262.7121C700.6471,-255.9516 777.1445,-244.2831 804.1501,-232.6 815.6347,-227.6316 815.686,-221.6581 826.7433,-215.8 843.121,-207.1232 862.023,-199.8337 879.151,-194.1334"/>
<text text-anchor="middle" x="870.8535" y="-220" font-family="Times,serif" font-size="14.00" fill="#000000">sum_array_1[1]</text>
</g>
<!-- epilogue -->
<g id="node5" class="node">
<title>epilogue</title>
<ellipse fill="none" stroke="#000000" cx="930.1501" cy="-106.8" rx="44.0833" ry="18"/>
<text text-anchor="middle" x="930.1501" y="-102.6" font-family="Times,serif" font-size="14.00" fill="#000000">epilogue</text>
</g>
<!-- callNode_epilogue&#45;&#45;epilogue -->
<g id="edge29" class="edge">
<title>callNode_epilogue&#45;&#45;epilogue</title>
<path fill="none" stroke="#000000" d="M930.1501,-161.7551C930.1501,-150.5241 930.1501,-136.1298 930.1501,-124.8904"/>
</g>
<!-- End -->
<g id="node6" class="node">
<title>End</title>
<ellipse fill="none" stroke="#000000" cx="930.1501" cy="-18" rx="27" ry="18"/>
<text text-anchor="middle" x="930.1501" y="-13.8" font-family="Times,serif" font-size="14.00" fill="#000000">end</text>
</g>
<!-- epilogue&#45;&#45;End -->
<g id="edge4" class="edge">
<title>epilogue&#45;&#45;End</title>
<path fill="none" stroke="#000000" d="M930.1501,-88.4006C930.1501,-73.0587 930.1501,-51.322 930.1501,-36.072"/>
<text text-anchor="middle" x="942.5954" y="-58.2" font-family="Times,serif" font-size="14.00" fill="#000000">*out</text>
</g>
</g>
</svg>
